<?xml version="1.0" encoding="UTF-8" standalone="no"?>
<!DOCTYPE svg PUBLIC "-//W3C//DTD SVG 1.1//EN"
 "http://www.w3.org/Graphics/SVG/1.1/DTD/svg11.dtd">
<!-- Generated by graphviz version 2.26.3 (20100126.1600)
 -->
<!-- Title: controllers_diagram Pages: 1 -->
<svg width="1020pt" height="912pt"
 viewBox="0.00 0.00 1020.00 912.00" xmlns="http://www.w3.org/2000/svg" xmlns:xlink="http://www.w3.org/1999/xlink">
<g id="graph1" class="graph" transform="scale(1 1) rotate(0) translate(4 908)">
<title>controllers_diagram</title>
<polygon fill="white" stroke="white" points="-4,5 -4,-908 1017,-908 1017,5 -4,5"/>
<!-- _diagram_info -->
<g id="node1" class="node"><title>_diagram_info</title>
<text text-anchor="start" x="385" y="-877.3" font-family="Times Roman,serif" font-size="13.00">Controllers diagram</text>
<text text-anchor="start" x="385" y="-860.3" font-family="Times Roman,serif" font-size="13.00">Date: Nov 24 2012 &#45; 16:32</text>
<text text-anchor="start" x="385" y="-843.3" font-family="Times Roman,serif" font-size="13.00">Migration version: 20121124143532</text>
<text text-anchor="start" x="385" y="-826.3" font-family="Times Roman,serif" font-size="13.00">Generated by RailRoady 1.1.0</text>
<text text-anchor="start" x="385" y="-809.3" font-family="Times Roman,serif" font-size="13.00">http://railroady.prestonlee.com</text>
</g>
<!-- UsersController -->
<g id="node2" class="node"><title>UsersController</title>
<polyline fill="none" stroke="black" points="13,-419.388 236,-419.388 "/>
<path fill="none" stroke="black" d="M236,-419.388C242,-419.388 248,-425.388 248,-431.388"/>
<polyline fill="none" stroke="black" points="248,-431.388 248,-581.388 "/>
<path fill="none" stroke="black" d="M248,-581.388C248,-587.388 242,-593.388 236,-593.388"/>
<polyline fill="none" stroke="black" points="236,-593.388 13,-593.388 "/>
<path fill="none" stroke="black" d="M13,-593.388C7,-593.388 1,-587.388 1,-581.388"/>
<polyline fill="none" stroke="black" points="1,-581.388 1,-431.388 "/>
<path fill="none" stroke="black" d="M1,-431.388C1,-425.388 7,-419.388 13,-419.388"/>
<text text-anchor="middle" x="124.5" y="-576.788" font-family="Times Roman,serif" font-size="14.00">UsersController</text>
<polyline fill="none" stroke="black" points="1,-567.388 248,-567.388 "/>
<text text-anchor="start" x="9" y="-550.788" font-family="Times Roman,serif" font-size="14.00">_one_time_conditions_valid_176?</text>
<text text-anchor="start" x="9" y="-532.788" font-family="Times Roman,serif" font-size="14.00">destroy</text>
<text text-anchor="start" x="9" y="-514.788" font-family="Times Roman,serif" font-size="14.00">index</text>
<text text-anchor="start" x="9" y="-496.788" font-family="Times Roman,serif" font-size="14.00">show</text>
<text text-anchor="start" x="9" y="-478.788" font-family="Times Roman,serif" font-size="14.00">update</text>
<polyline fill="none" stroke="black" points="1,-469.388 248,-469.388 "/>
<polyline fill="none" stroke="black" points="1,-445.388 248,-445.388 "/>
<text text-anchor="start" x="9" y="-428.788" font-family="Times Roman,serif" font-size="14.00">_layout</text>
</g>
<!-- TicketsController -->
<g id="node3" class="node"><title>TicketsController</title>
<polyline fill="none" stroke="black" points="622.422,-3.37685 845.422,-3.37685 "/>
<path fill="none" stroke="black" d="M845.422,-3.37685C851.422,-3.37685 857.422,-9.37685 857.422,-15.3768"/>
<polyline fill="none" stroke="black" points="857.422,-15.3768 857.422,-255.377 "/>
<path fill="none" stroke="black" d="M857.422,-255.377C857.422,-261.377 851.422,-267.377 845.422,-267.377"/>
<polyline fill="none" stroke="black" points="845.422,-267.377 622.422,-267.377 "/>
<path fill="none" stroke="black" d="M622.422,-267.377C616.422,-267.377 610.422,-261.377 610.422,-255.377"/>
<polyline fill="none" stroke="black" points="610.422,-255.377 610.422,-15.3768 "/>
<path fill="none" stroke="black" d="M610.422,-15.3768C610.422,-9.37685 616.422,-3.37685 622.422,-3.37685"/>
<text text-anchor="middle" x="733.922" y="-250.777" font-family="Times Roman,serif" font-size="14.00">TicketsController</text>
<polyline fill="none" stroke="black" points="610.422,-241.377 857.422,-241.377 "/>
<text text-anchor="start" x="618.422" y="-224.777" font-family="Times Roman,serif" font-size="14.00">_one_time_conditions_valid_178?</text>
<text text-anchor="start" x="618.422" y="-206.777" font-family="Times Roman,serif" font-size="14.00">_one_time_conditions_valid_180?</text>
<text text-anchor="start" x="618.422" y="-188.777" font-family="Times Roman,serif" font-size="14.00">create</text>
<text text-anchor="start" x="618.422" y="-170.777" font-family="Times Roman,serif" font-size="14.00">destroy</text>
<text text-anchor="start" x="618.422" y="-152.777" font-family="Times Roman,serif" font-size="14.00">edit</text>
<text text-anchor="start" x="618.422" y="-134.777" font-family="Times Roman,serif" font-size="14.00">my_tickets</text>
<text text-anchor="start" x="618.422" y="-116.777" font-family="Times Roman,serif" font-size="14.00">new</text>
<text text-anchor="start" x="618.422" y="-98.7768" font-family="Times Roman,serif" font-size="14.00">show</text>
<text text-anchor="start" x="618.422" y="-80.7768" font-family="Times Roman,serif" font-size="14.00">update</text>
<polyline fill="none" stroke="black" points="610.422,-71.3768 857.422,-71.3768 "/>
<polyline fill="none" stroke="black" points="610.422,-47.3768 857.422,-47.3768 "/>
<text text-anchor="start" x="618.422" y="-30.7768" font-family="Times Roman,serif" font-size="14.00">_layout</text>
<text text-anchor="start" x="618.422" y="-12.7768" font-family="Times Roman,serif" font-size="14.00">get_event</text>
</g>
<!-- HomeController -->
<g id="node4" class="node"><title>HomeController</title>
<polyline fill="none" stroke="black" points="399.629,-1.5 500.629,-1.5 "/>
<path fill="none" stroke="black" d="M500.629,-1.5C506.629,-1.5 512.629,-7.5 512.629,-13.5"/>
<polyline fill="none" stroke="black" points="512.629,-13.5 512.629,-91.5 "/>
<path fill="none" stroke="black" d="M512.629,-91.5C512.629,-97.5 506.629,-103.5 500.629,-103.5"/>
<polyline fill="none" stroke="black" points="500.629,-103.5 399.629,-103.5 "/>
<path fill="none" stroke="black" d="M399.629,-103.5C393.629,-103.5 387.629,-97.5 387.629,-91.5"/>
<polyline fill="none" stroke="black" points="387.629,-91.5 387.629,-13.5 "/>
<path fill="none" stroke="black" d="M387.629,-13.5C387.629,-7.5 393.629,-1.5 399.629,-1.5"/>
<text text-anchor="middle" x="450.129" y="-86.9" font-family="Times Roman,serif" font-size="14.00">HomeController</text>
<polyline fill="none" stroke="black" points="387.629,-77.5 512.629,-77.5 "/>
<text text-anchor="start" x="395.629" y="-60.9" font-family="Times Roman,serif" font-size="14.00">index</text>
<polyline fill="none" stroke="black" points="387.629,-51.5 512.629,-51.5 "/>
<polyline fill="none" stroke="black" points="387.629,-27.5 512.629,-27.5 "/>
<text text-anchor="start" x="395.629" y="-10.9" font-family="Times Roman,serif" font-size="14.00">_layout</text>
</g>
<!-- EventsController -->
<g id="node5" class="node"><title>EventsController</title>
<polyline fill="none" stroke="black" points="285.398,-467.135 508.398,-467.135 "/>
<path fill="none" stroke="black" d="M508.398,-467.135C514.398,-467.135 520.398,-473.135 520.398,-479.135"/>
<polyline fill="none" stroke="black" points="520.398,-479.135 520.398,-719.135 "/>
<path fill="none" stroke="black" d="M520.398,-719.135C520.398,-725.135 514.398,-731.135 508.398,-731.135"/>
<polyline fill="none" stroke="black" points="508.398,-731.135 285.398,-731.135 "/>
<path fill="none" stroke="black" d="M285.398,-731.135C279.398,-731.135 273.398,-725.135 273.398,-719.135"/>
<polyline fill="none" stroke="black" points="273.398,-719.135 273.398,-479.135 "/>
<path fill="none" stroke="black" d="M273.398,-479.135C273.398,-473.135 279.398,-467.135 285.398,-467.135"/>
<text text-anchor="middle" x="396.898" y="-714.535" font-family="Times Roman,serif" font-size="14.00">EventsController</text>
<polyline fill="none" stroke="black" points="273.398,-705.135 520.398,-705.135 "/>
<text text-anchor="start" x="281.398" y="-688.535" font-family="Times Roman,serif" font-size="14.00">_one_time_conditions_valid_184?</text>
<text text-anchor="start" x="281.398" y="-670.535" font-family="Times Roman,serif" font-size="14.00">_one_time_conditions_valid_188?</text>
<text text-anchor="start" x="281.398" y="-652.535" font-family="Times Roman,serif" font-size="14.00">create</text>
<text text-anchor="start" x="281.398" y="-634.535" font-family="Times Roman,serif" font-size="14.00">destroy</text>
<text text-anchor="start" x="281.398" y="-616.535" font-family="Times Roman,serif" font-size="14.00">edit</text>
<text text-anchor="start" x="281.398" y="-598.535" font-family="Times Roman,serif" font-size="14.00">index</text>
<text text-anchor="start" x="281.398" y="-580.535" font-family="Times Roman,serif" font-size="14.00">new</text>
<text text-anchor="start" x="281.398" y="-562.535" font-family="Times Roman,serif" font-size="14.00">show</text>
<text text-anchor="start" x="281.398" y="-544.535" font-family="Times Roman,serif" font-size="14.00">update</text>
<polyline fill="none" stroke="black" points="273.398,-535.135 520.398,-535.135 "/>
<polyline fill="none" stroke="black" points="273.398,-511.135 520.398,-511.135 "/>
<text text-anchor="start" x="281.398" y="-494.535" font-family="Times Roman,serif" font-size="14.00">_layout</text>
<text text-anchor="start" x="281.398" y="-476.535" font-family="Times Roman,serif" font-size="14.00">is_event_organizer</text>
</g>
<!-- Users::RegistrationsController -->
<g id="node6" class="node"><title>Users::RegistrationsController</title>
<polyline fill="none" stroke="black" points="107,-800.5 306,-800.5 "/>
<path fill="none" stroke="black" d="M306,-800.5C312,-800.5 318,-806.5 318,-812.5"/>
<polyline fill="none" stroke="black" points="318,-812.5 318,-890.5 "/>
<path fill="none" stroke="black" d="M318,-890.5C318,-896.5 312,-902.5 306,-902.5"/>
<polyline fill="none" stroke="black" points="306,-902.5 107,-902.5 "/>
<path fill="none" stroke="black" d="M107,-902.5C101,-902.5 95,-896.5 95,-890.5"/>
<polyline fill="none" stroke="black" points="95,-890.5 95,-812.5 "/>
<path fill="none" stroke="black" d="M95,-812.5C95,-806.5 101,-800.5 107,-800.5"/>
<text text-anchor="middle" x="206.5" y="-885.9" font-family="Times Roman,serif" font-size="14.00">Users::RegistrationsController</text>
<polyline fill="none" stroke="black" points="95,-876.5 318,-876.5 "/>
<text text-anchor="start" x="103" y="-859.9" font-family="Times Roman,serif" font-size="14.00">update</text>
<polyline fill="none" stroke="black" points="95,-850.5 318,-850.5 "/>
<polyline fill="none" stroke="black" points="95,-826.5 318,-826.5 "/>
<text text-anchor="start" x="103" y="-809.9" font-family="Times Roman,serif" font-size="14.00">_layout</text>
</g>
<!-- Users::OmniauthCallbacksController -->
<g id="node7" class="node"><title>Users::OmniauthCallbacksController</title>
<polyline fill="none" stroke="black" points="718,-659.5 999,-659.5 "/>
<path fill="none" stroke="black" d="M999,-659.5C1005,-659.5 1011,-665.5 1011,-671.5"/>
<polyline fill="none" stroke="black" points="1011,-671.5 1011,-821.5 "/>
<path fill="none" stroke="black" d="M1011,-821.5C1011,-827.5 1005,-833.5 999,-833.5"/>
<polyline fill="none" stroke="black" points="999,-833.5 718,-833.5 "/>
<path fill="none" stroke="black" d="M718,-833.5C712,-833.5 706,-827.5 706,-821.5"/>
<polyline fill="none" stroke="black" points="706,-821.5 706,-671.5 "/>
<path fill="none" stroke="black" d="M706,-671.5C706,-665.5 712,-659.5 718,-659.5"/>
<text text-anchor="middle" x="858.5" y="-816.9" font-family="Times Roman,serif" font-size="14.00">Users::OmniauthCallbacksController</text>
<polyline fill="none" stroke="black" points="706,-807.5 1011,-807.5 "/>
<text text-anchor="start" x="714" y="-790.9" font-family="Times Roman,serif" font-size="14.00">_one_time_conditions_valid_202?</text>
<text text-anchor="start" x="714" y="-772.9" font-family="Times Roman,serif" font-size="14.00">facebook</text>
<text text-anchor="start" x="714" y="-754.9" font-family="Times Roman,serif" font-size="14.00">twitter</text>
<polyline fill="none" stroke="black" points="706,-745.5 1011,-745.5 "/>
<polyline fill="none" stroke="black" points="706,-721.5 1011,-721.5 "/>
<text text-anchor="start" x="714" y="-704.9" font-family="Times Roman,serif" font-size="14.00">_layout</text>
<text text-anchor="start" x="714" y="-686.9" font-family="Times Roman,serif" font-size="14.00">get_auth</text>
<text text-anchor="start" x="714" y="-668.9" font-family="Times Roman,serif" font-size="14.00">redirect_to_success_or_registration_again</text>
</g>
<!-- DashboardController -->
<g id="node8" class="node"><title>DashboardController</title>
<polyline fill="none" stroke="black" points="604.404,-472.729 827.404,-472.729 "/>
<path fill="none" stroke="black" d="M827.404,-472.729C833.404,-472.729 839.404,-478.729 839.404,-484.729"/>
<polyline fill="none" stroke="black" points="839.404,-484.729 839.404,-580.729 "/>
<path fill="none" stroke="black" d="M839.404,-580.729C839.404,-586.729 833.404,-592.729 827.404,-592.729"/>
<polyline fill="none" stroke="black" points="827.404,-592.729 604.404,-592.729 "/>
<path fill="none" stroke="black" d="M604.404,-592.729C598.404,-592.729 592.404,-586.729 592.404,-580.729"/>
<polyline fill="none" stroke="black" points="592.404,-580.729 592.404,-484.729 "/>
<path fill="none" stroke="black" d="M592.404,-484.729C592.404,-478.729 598.404,-472.729 604.404,-472.729"/>
<text text-anchor="middle" x="715.904" y="-576.129" font-family="Times Roman,serif" font-size="14.00">DashboardController</text>
<polyline fill="none" stroke="black" points="592.404,-566.729 839.404,-566.729 "/>
<text text-anchor="start" x="600.404" y="-550.129" font-family="Times Roman,serif" font-size="14.00">_one_time_conditions_valid_204?</text>
<text text-anchor="start" x="600.404" y="-532.129" font-family="Times Roman,serif" font-size="14.00">index</text>
<polyline fill="none" stroke="black" points="592.404,-522.729 839.404,-522.729 "/>
<polyline fill="none" stroke="black" points="592.404,-498.729 839.404,-498.729 "/>
<text text-anchor="start" x="600.404" y="-482.129" font-family="Times Roman,serif" font-size="14.00">_layout</text>
</g>
<!-- ApplicationController -->
<g id="node9" class="node"><title>ApplicationController</title>
<polyline fill="none" stroke="black" points="328.104,-276.309 542.104,-276.309 "/>
<path fill="none" stroke="black" d="M542.104,-276.309C548.104,-276.309 554.104,-282.309 554.104,-288.309"/>
<polyline fill="none" stroke="black" points="554.104,-288.309 554.104,-366.309 "/>
<path fill="none" stroke="black" d="M554.104,-366.309C554.104,-372.309 548.104,-378.309 542.104,-378.309"/>
<polyline fill="none" stroke="black" points="542.104,-378.309 328.104,-378.309 "/>
<path fill="none" stroke="black" d="M328.104,-378.309C322.104,-378.309 316.104,-372.309 316.104,-366.309"/>
<polyline fill="none" stroke="black" points="316.104,-366.309 316.104,-288.309 "/>
<path fill="none" stroke="black" d="M316.104,-288.309C316.104,-282.309 322.104,-276.309 328.104,-276.309"/>
<text text-anchor="middle" x="435.104" y="-361.709" font-family="Times Roman,serif" font-size="14.00">ApplicationController</text>
<polyline fill="none" stroke="black" points="316.104,-352.309 554.104,-352.309 "/>
<text text-anchor="start" x="324.104" y="-335.709" font-family="Times Roman,serif" font-size="14.00">_one_time_conditions_valid_18?</text>
<polyline fill="none" stroke="black" points="316.104,-326.309 554.104,-326.309 "/>
<polyline fill="none" stroke="black" points="316.104,-302.309 554.104,-302.309 "/>
<text text-anchor="start" x="324.104" y="-285.709" font-family="Times Roman,serif" font-size="14.00">_layout</text>
</g>
<!-- ApplicationController&#45;&gt;UsersController -->
<g id="edge2" class="edge"><title>ApplicationController&#45;&gt;UsersController</title>
<path fill="none" stroke="black" d="M346.513,-378.386C315.941,-396.012 281.11,-416.094 248.248,-435.041"/>
</g>
<!-- ApplicationController&#45;&gt;TicketsController -->
<g id="edge4" class="edge"><title>ApplicationController&#45;&gt;TicketsController</title>
<path fill="none" stroke="black" d="M514.789,-276.127C544.094,-257.304 578.013,-235.518 610.278,-214.794"/>
</g>
<!-- ApplicationController&#45;&gt;HomeController -->
<g id="edge6" class="edge"><title>ApplicationController&#45;&gt;HomeController</title>
<path fill="none" stroke="black" d="M437.895,-276.263C440.585,-227.059 444.634,-153.007 447.327,-103.738"/>
</g>
<!-- ApplicationController&#45;&gt;EventsController -->
<g id="edge8" class="edge"><title>ApplicationController&#45;&gt;EventsController</title>
<path fill="none" stroke="black" d="M427.918,-378.437C424.362,-403.736 419.889,-435.56 415.455,-467.105"/>
</g>
<!-- ApplicationController&#45;&gt;DashboardController -->
<g id="edge10" class="edge"><title>ApplicationController&#45;&gt;DashboardController</title>
<path fill="none" stroke="black" d="M504.876,-378.351C543.94,-406.928 592.867,-442.721 633.772,-472.645"/>
</g>
<!-- PaymentNotificationsController -->
<g id="node10" class="node"><title>PaymentNotificationsController</title>
<polyline fill="none" stroke="black" points="32.7549,-56.2573 255.755,-56.2573 "/>
<path fill="none" stroke="black" d="M255.755,-56.2573C261.755,-56.2573 267.755,-62.2573 267.755,-68.2573"/>
<polyline fill="none" stroke="black" points="267.755,-68.2573 267.755,-164.257 "/>
<path fill="none" stroke="black" d="M267.755,-164.257C267.755,-170.257 261.755,-176.257 255.755,-176.257"/>
<polyline fill="none" stroke="black" points="255.755,-176.257 32.7549,-176.257 "/>
<path fill="none" stroke="black" d="M32.7549,-176.257C26.7549,-176.257 20.7549,-170.257 20.7549,-164.257"/>
<polyline fill="none" stroke="black" points="20.7549,-164.257 20.7549,-68.2573 "/>
<path fill="none" stroke="black" d="M20.7549,-68.2573C20.7549,-62.2573 26.7549,-56.2573 32.7549,-56.2573"/>
<text text-anchor="middle" x="144.255" y="-159.657" font-family="Times Roman,serif" font-size="14.00">PaymentNotificationsController</text>
<polyline fill="none" stroke="black" points="20.7549,-150.257 267.755,-150.257 "/>
<text text-anchor="start" x="28.7549" y="-133.657" font-family="Times Roman,serif" font-size="14.00">_one_time_conditions_valid_212?</text>
<text text-anchor="start" x="28.7549" y="-115.657" font-family="Times Roman,serif" font-size="14.00">create</text>
<polyline fill="none" stroke="black" points="20.7549,-106.257 267.755,-106.257 "/>
<polyline fill="none" stroke="black" points="20.7549,-82.2573 267.755,-82.2573 "/>
<text text-anchor="start" x="28.7549" y="-65.6573" font-family="Times Roman,serif" font-size="14.00">_layout</text>
</g>
<!-- ApplicationController&#45;&gt;PaymentNotificationsController -->
<g id="edge12" class="edge"><title>ApplicationController&#45;&gt;PaymentNotificationsController</title>
<path fill="none" stroke="black" d="M364.698,-276.219C323.256,-246.147 270.622,-207.954 227.178,-176.429"/>
</g>
</g>
</svg>
