<?xml version="1.0" encoding="UTF-8" standalone="no"?>
<!DOCTYPE svg PUBLIC "-//W3C//DTD SVG 1.1//EN"
 "http://www.w3.org/Graphics/SVG/1.1/DTD/svg11.dtd">
<!-- Generated by graphviz version 2.26.3 (20100126.1600)
 -->
<!-- Title: models_diagram Pages: 1 -->
<svg width="566pt" height="398pt"
 viewBox="0.00 0.00 566.00 398.00" xmlns="http://www.w3.org/2000/svg" xmlns:xlink="http://www.w3.org/1999/xlink">
<g id="graph1" class="graph" transform="scale(1 1) rotate(0) translate(4 394)">
<title>models_diagram</title>
<polygon fill="white" stroke="white" points="-4,5 -4,-394 563,-394 563,5 -4,5"/>
<!-- _diagram_info -->
<g id="node1" class="node"><title>_diagram_info</title>
<text text-anchor="start" x="8" y="-373.8" font-family="Times Roman,serif" font-size="13.00">Models diagram</text>
<text text-anchor="start" x="8" y="-356.8" font-family="Times Roman,serif" font-size="13.00">Date: Nov 24 2012 &#45; 16:32</text>
<text text-anchor="start" x="8" y="-339.8" font-family="Times Roman,serif" font-size="13.00">Migration version: 20121124143532</text>
<text text-anchor="start" x="8" y="-322.8" font-family="Times Roman,serif" font-size="13.00">Generated by RailRoady 1.1.0</text>
<text text-anchor="start" x="8" y="-305.8" font-family="Times Roman,serif" font-size="13.00">http://railroady.prestonlee.com</text>
</g>
<!-- VideoPrint -->
<g id="node2" class="node"><title>VideoPrint</title>
<ellipse fill="none" stroke="black" cx="185" cy="-241" rx="62.9325" ry="18.3848"/>
<text text-anchor="middle" x="185" y="-237.4" font-family="Times Roman,serif" font-size="14.00">VideoPrint</text>
</g>
<!-- Event -->
<g id="node9" class="node"><title>Event</title>
<ellipse fill="none" stroke="black" cx="232" cy="-167" rx="39.8075" ry="18.3848"/>
<text text-anchor="middle" x="232" y="-163.4" font-family="Times Roman,serif" font-size="14.00">Event</text>
</g>
<!-- VideoPrint&#45;&gt;Event -->
<g id="edge2" class="edge"><title>VideoPrint&#45;&gt;Event</title>
<path fill="none" stroke="#0f86bc" d="M200.94,-215.903C205.902,-208.09 211.368,-199.485 216.312,-191.7"/>
<ellipse fill="none" stroke="#0f86bc" cx="198.763" cy="-219.331" rx="4.00002" ry="4.00002"/>
<ellipse fill="#0f86bc" stroke="#0f86bc" cx="218.533" cy="-188.203" rx="4.00002" ry="4.00002"/>
</g>
<!-- Ability -->
<g id="node3" class="node"><title>Ability</title>
<polygon fill="none" stroke="black" points="410,-361 350,-361 350,-325 410,-325 410,-361"/>
<text text-anchor="middle" x="380" y="-339.4" font-family="Times Roman,serif" font-size="14.00">Ability</text>
</g>
<!-- Ticket -->
<g id="node4" class="node"><title>Ticket</title>
<ellipse fill="none" stroke="black" cx="266" cy="-93" rx="39.8075" ry="18.3848"/>
<text text-anchor="middle" x="266" y="-89.4" font-family="Times Roman,serif" font-size="14.00">Ticket</text>
</g>
<!-- PaymentNotification -->
<g id="node7" class="node"><title>PaymentNotification</title>
<ellipse fill="none" stroke="black" cx="266" cy="-19" rx="109.81" ry="18.3848"/>
<text text-anchor="middle" x="266" y="-15.4" font-family="Times Roman,serif" font-size="14.00">PaymentNotification</text>
</g>
<!-- Ticket&#45;&gt;PaymentNotification -->
<g id="edge4" class="edge"><title>Ticket&#45;&gt;PaymentNotification</title>
<path fill="none" stroke="#1ad10d" d="M266,-66.309C266,-59.6354 266,-52.4756 266,-45.7969"/>
<ellipse fill="none" stroke="#1ad10d" cx="266" cy="-70.3267" rx="4" ry="4"/>
<ellipse fill="#1ad10d" stroke="#1ad10d" cx="266" cy="-41.6674" rx="4" ry="4"/>
</g>
<!-- Role -->
<g id="node5" class="node"><title>Role</title>
<ellipse fill="none" stroke="black" cx="300" cy="-343" rx="32.0265" ry="18.3848"/>
<text text-anchor="middle" x="300" y="-339.4" font-family="Times Roman,serif" font-size="14.00">Role</text>
</g>
<!-- User -->
<g id="node6" class="node"><title>User</title>
<ellipse fill="none" stroke="black" cx="300" cy="-241" rx="33.9411" ry="18.3848"/>
<text text-anchor="middle" x="300" y="-237.4" font-family="Times Roman,serif" font-size="14.00">User</text>
</g>
<!-- Role&#45;&gt;User -->
<g id="edge6" class="edge"><title>Role&#45;&gt;User</title>
<path fill="none" stroke="#f60224" d="M300,-314.054C300,-300.256 300,-283.791 300,-269.987"/>
<polygon fill="#f60224" stroke="#f60224" points="300,-314.292 295.5,-324.292 300,-319.292 300,-324.292 300,-324.292 300,-324.292 300,-319.292 304.5,-324.292 300,-314.292 300,-314.292"/>
<polygon fill="#f60224" stroke="#f60224" points="300,-269.59 304.5,-259.59 300,-264.59 300,-259.59 300,-259.59 300,-259.59 300,-264.59 295.5,-259.59 300,-269.59 300,-269.59"/>
</g>
<!-- User&#45;&gt;Ticket -->
<g id="edge10" class="edge"><title>User&#45;&gt;Ticket</title>
<path fill="none" stroke="#c14e2b" d="M295.029,-214.342C291.436,-195.694 286.299,-170.243 281,-148 278.929,-139.307 276.453,-129.904 274.115,-121.374"/>
<ellipse fill="none" stroke="#c14e2b" cx="295.816" cy="-218.466" rx="4.00001" ry="4.00001"/>
<polygon fill="#c14e2b" stroke="#c14e2b" points="274.05,-121.142 275.704,-110.301 272.71,-116.325 271.369,-111.508 271.369,-111.508 271.369,-111.508 272.71,-116.325 267.034,-112.715 274.05,-121.142 274.05,-121.142"/>
</g>
<!-- User&#45;&gt;Event -->
<g id="edge8" class="edge"><title>User&#45;&gt;Event</title>
<path fill="none" stroke="#24b3d6" d="M278.901,-218.04C271.224,-209.685 262.517,-200.21 254.706,-191.71"/>
<ellipse fill="none" stroke="#24b3d6" cx="281.863" cy="-221.263" rx="4.00002" ry="4.00002"/>
<polygon fill="#24b3d6" stroke="#24b3d6" points="254.607,-191.602 251.155,-181.194 251.224,-187.92 247.841,-184.239 247.841,-184.239 247.841,-184.239 251.224,-187.92 244.528,-187.284 254.607,-191.602 254.607,-191.602"/>
</g>
<!-- AdminUser -->
<g id="node8" class="node"><title>AdminUser</title>
<ellipse fill="none" stroke="black" cx="493" cy="-343" rx="65.0538" ry="18.3848"/>
<text text-anchor="middle" x="493" y="-339.4" font-family="Times Roman,serif" font-size="14.00">AdminUser</text>
</g>
<!-- Event&#45;&gt;Ticket -->
<g id="edge12" class="edge"><title>Event&#45;&gt;Ticket</title>
<path fill="none" stroke="#d42ecb" d="M243.75,-141.427C246.806,-134.776 250.113,-127.578 253.219,-120.817"/>
<ellipse fill="none" stroke="#d42ecb" cx="242.075" cy="-145.073" rx="4.00002" ry="4.00002"/>
<polygon fill="#d42ecb" stroke="#d42ecb" points="253.399,-120.425 261.663,-113.217 255.487,-115.882 257.574,-111.338 257.574,-111.338 257.574,-111.338 255.487,-115.882 253.485,-109.459 253.399,-120.425 253.399,-120.425"/>
</g>
</g>
</svg>
