<?xml version="1.0" encoding="UTF-8" standalone="no"?>
<!DOCTYPE svg PUBLIC "-//W3C//DTD SVG 1.1//EN"
 "http://www.w3.org/Graphics/SVG/1.1/DTD/svg11.dtd">
<!-- Generated by graphviz version 2.26.3 (20100126.1600)
 -->
<!-- Title: models_diagram Pages: 1 -->
<svg width="790pt" height="1376pt"
 viewBox="0.00 0.00 790.00 1376.00" xmlns="http://www.w3.org/2000/svg" xmlns:xlink="http://www.w3.org/1999/xlink">
<g id="graph1" class="graph" transform="scale(1 1) rotate(0) translate(4 1372)">
<title>models_diagram</title>
<polygon fill="white" stroke="white" points="-4,5 -4,-1372 787,-1372 787,5 -4,5"/>
<!-- _diagram_info -->
<g id="node1" class="node"><title>_diagram_info</title>
<text text-anchor="start" x="8" y="-1263.8" font-family="Times Roman,serif" font-size="13.00">Models diagram</text>
<text text-anchor="start" x="8" y="-1246.8" font-family="Times Roman,serif" font-size="13.00">Date: Nov 24 2012 &#45; 16:32</text>
<text text-anchor="start" x="8" y="-1229.8" font-family="Times Roman,serif" font-size="13.00">Migration version: 20121124143532</text>
<text text-anchor="start" x="8" y="-1212.8" font-family="Times Roman,serif" font-size="13.00">Generated by RailRoady 1.1.0</text>
<text text-anchor="start" x="8" y="-1195.8" font-family="Times Roman,serif" font-size="13.00">http://railroady.prestonlee.com</text>
</g>
<!-- VideoPrint -->
<g id="node2" class="node"><title>VideoPrint</title>
<polyline fill="none" stroke="black" points="52.5,-847 193.5,-847 "/>
<path fill="none" stroke="black" d="M193.5,-847C199.5,-847 205.5,-853 205.5,-859"/>
<polyline fill="none" stroke="black" points="205.5,-859 205.5,-941 "/>
<path fill="none" stroke="black" d="M205.5,-941C205.5,-947 199.5,-953 193.5,-953"/>
<polyline fill="none" stroke="black" points="193.5,-953 52.5,-953 "/>
<path fill="none" stroke="black" d="M52.5,-953C46.5,-953 40.5,-947 40.5,-941"/>
<polyline fill="none" stroke="black" points="40.5,-941 40.5,-859 "/>
<path fill="none" stroke="black" d="M40.5,-859C40.5,-853 46.5,-847 52.5,-847"/>
<text text-anchor="middle" x="123" y="-936.4" font-family="Times Roman,serif" font-size="14.00">VideoPrint</text>
<polyline fill="none" stroke="black" points="40.5,-927 205.5,-927 "/>
<text text-anchor="start" x="48.5" y="-910.4" font-family="Times Roman,serif" font-size="14.00">id :integer</text>
<text text-anchor="start" x="48.5" y="-892.4" font-family="Times Roman,serif" font-size="14.00">ticket_id :integer</text>
<text text-anchor="start" x="48.5" y="-874.4" font-family="Times Roman,serif" font-size="14.00">created_at :datetime</text>
<text text-anchor="start" x="48.5" y="-856.4" font-family="Times Roman,serif" font-size="14.00">updated_at :datetime</text>
</g>
<!-- Event -->
<g id="node9" class="node"><title>Event</title>
<polyline fill="none" stroke="black" points="138,-433 310,-433 "/>
<path fill="none" stroke="black" d="M310,-433C316,-433 322,-439 322,-445"/>
<polyline fill="none" stroke="black" points="322,-445 322,-689 "/>
<path fill="none" stroke="black" d="M322,-689C322,-695 316,-701 310,-701"/>
<polyline fill="none" stroke="black" points="310,-701 138,-701 "/>
<path fill="none" stroke="black" d="M138,-701C132,-701 126,-695 126,-689"/>
<polyline fill="none" stroke="black" points="126,-689 126,-445 "/>
<path fill="none" stroke="black" d="M126,-445C126,-439 132,-433 138,-433"/>
<text text-anchor="middle" x="224" y="-684.4" font-family="Times Roman,serif" font-size="14.00">Event</text>
<polyline fill="none" stroke="black" points="126,-675 322,-675 "/>
<text text-anchor="start" x="134" y="-658.4" font-family="Times Roman,serif" font-size="14.00">id :integer</text>
<text text-anchor="start" x="134" y="-640.4" font-family="Times Roman,serif" font-size="14.00">name :string</text>
<text text-anchor="start" x="134" y="-622.4" font-family="Times Roman,serif" font-size="14.00">celebrated_at :datetime</text>
<text text-anchor="start" x="134" y="-604.4" font-family="Times Roman,serif" font-size="14.00">address :text</text>
<text text-anchor="start" x="134" y="-586.4" font-family="Times Roman,serif" font-size="14.00">price :decimal</text>
<text text-anchor="start" x="134" y="-568.4" font-family="Times Roman,serif" font-size="14.00">info :text</text>
<text text-anchor="start" x="134" y="-550.4" font-family="Times Roman,serif" font-size="14.00">url :string</text>
<text text-anchor="start" x="134" y="-532.4" font-family="Times Roman,serif" font-size="14.00">selling_deadline :datetime</text>
<text text-anchor="start" x="134" y="-514.4" font-family="Times Roman,serif" font-size="14.00">capacity :integer</text>
<text text-anchor="start" x="134" y="-496.4" font-family="Times Roman,serif" font-size="14.00">door_payment :boolean</text>
<text text-anchor="start" x="134" y="-478.4" font-family="Times Roman,serif" font-size="14.00">organizer_id :integer</text>
<text text-anchor="start" x="134" y="-460.4" font-family="Times Roman,serif" font-size="14.00">created_at :datetime</text>
<text text-anchor="start" x="134" y="-442.4" font-family="Times Roman,serif" font-size="14.00">updated_at :datetime</text>
</g>
<!-- VideoPrint&#45;&gt;Event -->
<g id="edge2" class="edge"><title>VideoPrint&#45;&gt;Event</title>
<path fill="none" stroke="#719931" d="M141.552,-838.832C152.617,-802.351 167.154,-754.423 180.936,-708.984"/>
<ellipse fill="none" stroke="#719931" cx="140.276" cy="-843.039" rx="4.00001" ry="4.00001"/>
<ellipse fill="#719931" stroke="#719931" cx="182.158" cy="-704.954" rx="4.00001" ry="4.00001"/>
</g>
<!-- Ability -->
<g id="node3" class="node"><title>Ability</title>
<polygon fill="none" stroke="black" points="450,-1207 450,-1259 510,-1259 510,-1207 450,-1207"/>
<text text-anchor="middle" x="480" y="-1242.4" font-family="Times Roman,serif" font-size="14.00">Ability</text>
<polyline fill="none" stroke="black" points="450,-1233 510,-1233 "/>
<text text-anchor="middle" x="480" y="-1216.4" font-family="Times Roman,serif" font-size="14.00"> </text>
</g>
<!-- Ticket -->
<g id="node4" class="node"><title>Ticket</title>
<polyline fill="none" stroke="black" points="216.5,-199 357.5,-199 "/>
<path fill="none" stroke="black" d="M357.5,-199C363.5,-199 369.5,-205 369.5,-211"/>
<polyline fill="none" stroke="black" points="369.5,-211 369.5,-383 "/>
<path fill="none" stroke="black" d="M369.5,-383C369.5,-389 363.5,-395 357.5,-395"/>
<polyline fill="none" stroke="black" points="357.5,-395 216.5,-395 "/>
<path fill="none" stroke="black" d="M216.5,-395C210.5,-395 204.5,-389 204.5,-383"/>
<polyline fill="none" stroke="black" points="204.5,-383 204.5,-211 "/>
<path fill="none" stroke="black" d="M204.5,-211C204.5,-205 210.5,-199 216.5,-199"/>
<text text-anchor="middle" x="287" y="-378.4" font-family="Times Roman,serif" font-size="14.00">Ticket</text>
<polyline fill="none" stroke="black" points="204.5,-369 369.5,-369 "/>
<text text-anchor="start" x="212.5" y="-352.4" font-family="Times Roman,serif" font-size="14.00">id :integer</text>
<text text-anchor="start" x="212.5" y="-334.4" font-family="Times Roman,serif" font-size="14.00">random_key :string</text>
<text text-anchor="start" x="212.5" y="-316.4" font-family="Times Roman,serif" font-size="14.00">attendees :integer</text>
<text text-anchor="start" x="212.5" y="-298.4" font-family="Times Roman,serif" font-size="14.00">event_id :integer</text>
<text text-anchor="start" x="212.5" y="-280.4" font-family="Times Roman,serif" font-size="14.00">user_id :integer</text>
<text text-anchor="start" x="212.5" y="-262.4" font-family="Times Roman,serif" font-size="14.00">created_at :datetime</text>
<text text-anchor="start" x="212.5" y="-244.4" font-family="Times Roman,serif" font-size="14.00">updated_at :datetime</text>
<text text-anchor="start" x="212.5" y="-226.4" font-family="Times Roman,serif" font-size="14.00">unpaid :boolean</text>
<text text-anchor="start" x="212.5" y="-208.4" font-family="Times Roman,serif" font-size="14.00">pay_at_door :boolean</text>
</g>
<!-- PaymentNotification -->
<g id="node7" class="node"><title>PaymentNotification</title>
<polyline fill="none" stroke="black" points="216.5,-1 357.5,-1 "/>
<path fill="none" stroke="black" d="M357.5,-1C363.5,-1 369.5,-7 369.5,-13"/>
<polyline fill="none" stroke="black" points="369.5,-13 369.5,-149 "/>
<path fill="none" stroke="black" d="M369.5,-149C369.5,-155 363.5,-161 357.5,-161"/>
<polyline fill="none" stroke="black" points="357.5,-161 216.5,-161 "/>
<path fill="none" stroke="black" d="M216.5,-161C210.5,-161 204.5,-155 204.5,-149"/>
<polyline fill="none" stroke="black" points="204.5,-149 204.5,-13 "/>
<path fill="none" stroke="black" d="M204.5,-13C204.5,-7 210.5,-1 216.5,-1"/>
<text text-anchor="middle" x="287" y="-144.4" font-family="Times Roman,serif" font-size="14.00">PaymentNotification</text>
<polyline fill="none" stroke="black" points="204.5,-135 369.5,-135 "/>
<text text-anchor="start" x="212.5" y="-118.4" font-family="Times Roman,serif" font-size="14.00">id :integer</text>
<text text-anchor="start" x="212.5" y="-100.4" font-family="Times Roman,serif" font-size="14.00">params :text</text>
<text text-anchor="start" x="212.5" y="-82.4" font-family="Times Roman,serif" font-size="14.00">status :string</text>
<text text-anchor="start" x="212.5" y="-64.4" font-family="Times Roman,serif" font-size="14.00">transaction_id :string</text>
<text text-anchor="start" x="212.5" y="-46.4" font-family="Times Roman,serif" font-size="14.00">ticket_id :integer</text>
<text text-anchor="start" x="212.5" y="-28.4" font-family="Times Roman,serif" font-size="14.00">created_at :datetime</text>
<text text-anchor="start" x="212.5" y="-10.4" font-family="Times Roman,serif" font-size="14.00">updated_at :datetime</text>
</g>
<!-- Ticket&#45;&gt;PaymentNotification -->
<g id="edge4" class="edge"><title>Ticket&#45;&gt;PaymentNotification</title>
<path fill="none" stroke="#a9ddb6" d="M287,-190.514C287,-183.417 287,-176.312 287,-169.32"/>
<ellipse fill="none" stroke="#a9ddb6" cx="287" cy="-194.797" rx="4" ry="4"/>
<ellipse fill="#a9ddb6" stroke="#a9ddb6" cx="287" cy="-165.172" rx="4" ry="4"/>
</g>
<!-- Role -->
<g id="node5" class="node"><title>Role</title>
<polyline fill="none" stroke="black" points="279.5,-1162 420.5,-1162 "/>
<path fill="none" stroke="black" d="M420.5,-1162C426.5,-1162 432.5,-1168 432.5,-1174"/>
<polyline fill="none" stroke="black" points="432.5,-1174 432.5,-1292 "/>
<path fill="none" stroke="black" d="M432.5,-1292C432.5,-1298 426.5,-1304 420.5,-1304"/>
<polyline fill="none" stroke="black" points="420.5,-1304 279.5,-1304 "/>
<path fill="none" stroke="black" d="M279.5,-1304C273.5,-1304 267.5,-1298 267.5,-1292"/>
<polyline fill="none" stroke="black" points="267.5,-1292 267.5,-1174 "/>
<path fill="none" stroke="black" d="M267.5,-1174C267.5,-1168 273.5,-1162 279.5,-1162"/>
<text text-anchor="middle" x="350" y="-1287.4" font-family="Times Roman,serif" font-size="14.00">Role</text>
<polyline fill="none" stroke="black" points="267.5,-1278 432.5,-1278 "/>
<text text-anchor="start" x="275.5" y="-1261.4" font-family="Times Roman,serif" font-size="14.00">id :integer</text>
<text text-anchor="start" x="275.5" y="-1243.4" font-family="Times Roman,serif" font-size="14.00">name :string</text>
<text text-anchor="start" x="275.5" y="-1225.4" font-family="Times Roman,serif" font-size="14.00">resource_id :integer</text>
<text text-anchor="start" x="275.5" y="-1207.4" font-family="Times Roman,serif" font-size="14.00">resource_type :string</text>
<text text-anchor="start" x="275.5" y="-1189.4" font-family="Times Roman,serif" font-size="14.00">created_at :datetime</text>
<text text-anchor="start" x="275.5" y="-1171.4" font-family="Times Roman,serif" font-size="14.00">updated_at :datetime</text>
</g>
<!-- User -->
<g id="node6" class="node"><title>User</title>
<polyline fill="none" stroke="black" points="235,-739 465,-739 "/>
<path fill="none" stroke="black" d="M465,-739C471,-739 477,-745 477,-751"/>
<polyline fill="none" stroke="black" points="477,-751 477,-1049 "/>
<path fill="none" stroke="black" d="M477,-1049C477,-1055 471,-1061 465,-1061"/>
<polyline fill="none" stroke="black" points="465,-1061 235,-1061 "/>
<path fill="none" stroke="black" d="M235,-1061C229,-1061 223,-1055 223,-1049"/>
<polyline fill="none" stroke="black" points="223,-1049 223,-751 "/>
<path fill="none" stroke="black" d="M223,-751C223,-745 229,-739 235,-739"/>
<text text-anchor="middle" x="350" y="-1044.4" font-family="Times Roman,serif" font-size="14.00">User</text>
<polyline fill="none" stroke="black" points="223,-1035 477,-1035 "/>
<text text-anchor="start" x="231" y="-1018.4" font-family="Times Roman,serif" font-size="14.00">id :integer</text>
<text text-anchor="start" x="231" y="-1000.4" font-family="Times Roman,serif" font-size="14.00">email :string</text>
<text text-anchor="start" x="231" y="-982.4" font-family="Times Roman,serif" font-size="14.00">encrypted_password :string</text>
<text text-anchor="start" x="231" y="-964.4" font-family="Times Roman,serif" font-size="14.00">reset_password_token :string</text>
<text text-anchor="start" x="231" y="-946.4" font-family="Times Roman,serif" font-size="14.00">reset_password_sent_at :datetime</text>
<text text-anchor="start" x="231" y="-928.4" font-family="Times Roman,serif" font-size="14.00">remember_created_at :datetime</text>
<text text-anchor="start" x="231" y="-910.4" font-family="Times Roman,serif" font-size="14.00">sign_in_count :integer</text>
<text text-anchor="start" x="231" y="-892.4" font-family="Times Roman,serif" font-size="14.00">current_sign_in_at :datetime</text>
<text text-anchor="start" x="231" y="-874.4" font-family="Times Roman,serif" font-size="14.00">last_sign_in_at :datetime</text>
<text text-anchor="start" x="231" y="-856.4" font-family="Times Roman,serif" font-size="14.00">current_sign_in_ip :string</text>
<text text-anchor="start" x="231" y="-838.4" font-family="Times Roman,serif" font-size="14.00">last_sign_in_ip :string</text>
<text text-anchor="start" x="231" y="-820.4" font-family="Times Roman,serif" font-size="14.00">created_at :datetime</text>
<text text-anchor="start" x="231" y="-802.4" font-family="Times Roman,serif" font-size="14.00">updated_at :datetime</text>
<text text-anchor="start" x="231" y="-784.4" font-family="Times Roman,serif" font-size="14.00">name :string</text>
<text text-anchor="start" x="231" y="-766.4" font-family="Times Roman,serif" font-size="14.00">provider :string</text>
<text text-anchor="start" x="231" y="-748.4" font-family="Times Roman,serif" font-size="14.00">uid :string</text>
</g>
<!-- Role&#45;&gt;User -->
<g id="edge6" class="edge"><title>Role&#45;&gt;User</title>
<path fill="none" stroke="#fc5ba9" d="M350,-1151.68C350,-1127.28 350,-1099.53 350,-1071.59"/>
<polygon fill="#fc5ba9" stroke="#fc5ba9" points="350,-1151.97 345.5,-1161.97 350,-1156.97 350,-1161.97 350,-1161.97 350,-1161.97 350,-1156.97 354.5,-1161.97 350,-1151.97 350,-1151.97"/>
<polygon fill="#fc5ba9" stroke="#fc5ba9" points="350,-1071.3 354.5,-1061.3 350,-1066.3 350,-1061.3 350,-1061.3 350,-1061.3 350,-1066.3 345.5,-1061.3 350,-1071.3 350,-1071.3"/>
</g>
<!-- User&#45;&gt;Ticket -->
<g id="edge10" class="edge"><title>User&#45;&gt;Ticket</title>
<path fill="none" stroke="#a33661" d="M354.262,-730.76C353.722,-641.289 348.61,-529.986 331,-432 329.415,-423.18 327.393,-414.143 325.09,-405.129"/>
<ellipse fill="none" stroke="#a33661" cx="354.281" cy="-734.801" rx="4" ry="4"/>
<polygon fill="#a33661" stroke="#a33661" points="325.063,-405.029 326.836,-394.208 323.776,-400.198 322.488,-395.367 322.488,-395.367 322.488,-395.367 323.776,-400.198 318.14,-396.526 325.063,-405.029 325.063,-405.029"/>
</g>
<!-- User&#45;&gt;Event -->
<g id="edge8" class="edge"><title>User&#45;&gt;Event</title>
<path fill="none" stroke="#ed8a61" d="M286.12,-731.174C283.563,-724.416 281.008,-717.663 278.472,-710.96"/>
<ellipse fill="none" stroke="#ed8a61" cx="287.614" cy="-735.124" rx="4.00001" ry="4.00001"/>
<polygon fill="#ed8a61" stroke="#ed8a61" points="278.31,-710.533 278.98,-699.588 276.54,-705.857 274.771,-701.18 274.771,-701.18 274.771,-701.18 276.54,-705.857 270.562,-702.773 278.31,-710.533 278.31,-710.533"/>
</g>
<!-- AdminUser -->
<g id="node8" class="node"><title>AdminUser</title>
<polyline fill="none" stroke="black" points="540,-1099 770,-1099 "/>
<path fill="none" stroke="black" d="M770,-1099C776,-1099 782,-1105 782,-1111"/>
<polyline fill="none" stroke="black" points="782,-1111 782,-1355 "/>
<path fill="none" stroke="black" d="M782,-1355C782,-1361 776,-1367 770,-1367"/>
<polyline fill="none" stroke="black" points="770,-1367 540,-1367 "/>
<path fill="none" stroke="black" d="M540,-1367C534,-1367 528,-1361 528,-1355"/>
<polyline fill="none" stroke="black" points="528,-1355 528,-1111 "/>
<path fill="none" stroke="black" d="M528,-1111C528,-1105 534,-1099 540,-1099"/>
<text text-anchor="middle" x="655" y="-1350.4" font-family="Times Roman,serif" font-size="14.00">AdminUser</text>
<polyline fill="none" stroke="black" points="528,-1341 782,-1341 "/>
<text text-anchor="start" x="536" y="-1324.4" font-family="Times Roman,serif" font-size="14.00">id :integer</text>
<text text-anchor="start" x="536" y="-1306.4" font-family="Times Roman,serif" font-size="14.00">email :string</text>
<text text-anchor="start" x="536" y="-1288.4" font-family="Times Roman,serif" font-size="14.00">encrypted_password :string</text>
<text text-anchor="start" x="536" y="-1270.4" font-family="Times Roman,serif" font-size="14.00">reset_password_token :string</text>
<text text-anchor="start" x="536" y="-1252.4" font-family="Times Roman,serif" font-size="14.00">reset_password_sent_at :datetime</text>
<text text-anchor="start" x="536" y="-1234.4" font-family="Times Roman,serif" font-size="14.00">remember_created_at :datetime</text>
<text text-anchor="start" x="536" y="-1216.4" font-family="Times Roman,serif" font-size="14.00">sign_in_count :integer</text>
<text text-anchor="start" x="536" y="-1198.4" font-family="Times Roman,serif" font-size="14.00">current_sign_in_at :datetime</text>
<text text-anchor="start" x="536" y="-1180.4" font-family="Times Roman,serif" font-size="14.00">last_sign_in_at :datetime</text>
<text text-anchor="start" x="536" y="-1162.4" font-family="Times Roman,serif" font-size="14.00">current_sign_in_ip :string</text>
<text text-anchor="start" x="536" y="-1144.4" font-family="Times Roman,serif" font-size="14.00">last_sign_in_ip :string</text>
<text text-anchor="start" x="536" y="-1126.4" font-family="Times Roman,serif" font-size="14.00">created_at :datetime</text>
<text text-anchor="start" x="536" y="-1108.4" font-family="Times Roman,serif" font-size="14.00">updated_at :datetime</text>
</g>
<!-- Event&#45;&gt;Ticket -->
<g id="edge12" class="edge"><title>Event&#45;&gt;Ticket</title>
<path fill="none" stroke="#b9224e" d="M257.191,-424.754C258.724,-418.183 260.252,-411.635 261.76,-405.173"/>
<ellipse fill="none" stroke="#b9224e" cx="256.224" cy="-428.896" rx="4.00001" ry="4.00001"/>
<polygon fill="#b9224e" stroke="#b9224e" points="261.838,-404.835 268.493,-396.119 262.975,-399.966 264.111,-395.097 264.111,-395.097 264.111,-395.097 262.975,-399.966 259.728,-394.074 261.838,-404.835 261.838,-404.835"/>
</g>
</g>
</svg>
